<?xml version="1.0" standalone="no"?>
<!DOCTYPE svg PUBLIC "-//W3C//DTD SVG 20010904//EN"
 "http://www.w3.org/TR/2001/REC-SVG-20010904/DTD/svg10.dtd">
<svg version="1.0"
  xmlns="http://www.w3.org/2000/svg" width="887.000000pt" height="518.000000pt" viewBox="0 0 887.000000 518.000000" preserveAspectRatio="xMidYMid meet">

  <g transform="translate(0.000000,518.000000) scale(0.100000,-0.100000)" fill="#000000" stroke="none">
    <path d="M48 5164 c-15 -8 -32 -23 -38 -34 -14 -26 -14 -5054 0 -5081 28 -51
-55 -49 1650 -49 1705 0 1622 -2 1650 49 14 27 14 5055 0 5082 -28 52 55 49
-1652 49 -1378 -1 -1587 -3 -1610 -16z m728 -805 c41 -60 162 -169 235 -212
92 -54 233 -96 367 -110 l112 -11 0 -30 c0 -45 -67 -103 -182 -156 l-98 -45 0
-42 0 -43 45 0 c43 0 45 -1 45 -28 0 -20 -22 -57 -69 -121 l-69 -92 24 -107
c30 -139 30 -163 -1 -192 -14 -13 -25 -33 -25 -45 0 -27 37 -62 70 -67 22 -3
25 -8 28 -50 3 -46 2 -48 -24 -48 l-26 0 6 -72 c3 -40 15 -239 27 -443 l21
-370 -26 -440 -26 -439 24 -24 24 -24 217 11 c119 6 269 18 333 27 248 32 529
100 720 174 l72 28 0 -27 c0 -14 -41 -119 -91 -234 l-92 -207 -48 0 c-44 0
-48 2 -54 29 -7 35 -38 64 -90 88 -36 16 -84 18 -520 21 l-480 3 -172 -49
-173 -49 0 34 c0 49 -14 68 -60 87 -58 23 -118 21 -147 -6 l-23 -21 0 49 0 49
73 27 c109 41 194 95 272 173 88 87 131 172 152 294 l15 87 -57 264 c-154 722
-284 1417 -305 1640 -11 108 -97 720 -105 748 -3 7 6 12 24 12 22 0 35 -9 57
-41z m1898 -31 c-56 -63 -91 -135 -104 -215 -13 -79 -13 -2176 0 -2266 10 -67
34 -126 73 -179 19 -25 19 -30 6 -43 -13 -14 -21 -13 -73 5 -32 11 -73 29 -92
40 -49 31 -109 103 -122 148 -9 29 -12 342 -12 1210 l0 1170 24 30 c41 48 259
150 324 152 22 0 20 -5 -24 -52z m-812 -315 c65 -29 113 -77 148 -145 l30 -61
0 -997 0 -996 -50 -56 c-32 -37 -72 -68 -112 -87 -62 -31 -128 -41 -128 -19 0
6 18 42 39 78 l40 66 -11 280 c-5 153 -13 631 -16 1061 -7 772 -7 782 -28 810
-11 15 -32 30 -45 33 -17 4 -25 14 -27 34 l-4 29 60 -5 c33 -3 79 -15 104 -25z"/>
    <path d="M7621 4949 c-260 -29 -582 -122 -848 -244 l-83 -38 0 -259 0 -258
162 2 161 3 17 50 c62 182 187 347 323 423 170 97 439 109 612 26 81 -38 185
-139 228 -222 95 -182 119 -433 61 -657 -53 -204 -193 -437 -442 -735 l-80
-95 222 -3 221 -2 43 47 c393 439 520 637 572 893 29 137 24 370 -9 494 -82
307 -310 496 -676 561 -110 20 -370 27 -484 14z"/>
    <path d="M3640 4856 l0 -64 53 -18 c128 -42 206 -105 228 -186 25 -93 28 -199
29 -910 l0 -738 249 0 250 0 3 783 c4 707 6 788 21 841 34 115 78 158 210 202
l77 26 0 64 0 64 -560 0 -560 0 0 -64z"/>
    <path d="M3690 460 l0 -300 190 0 190 0 0 40 0 40 -150 0 -150 0 0 260 0 260
-40 0 -40 0 0 -300z"/>
    <path d="M4170 720 l0 -40 40 0 40 0 0 40 0 40 -40 0 -40 0 0 -40z"/>
    <path d="M7820 720 l0 -40 40 0 40 0 0 40 0 40 -40 0 -40 0 0 -40z"/>
    <path d="M8270 648 l0 -111 -23 21 c-68 64 -171 42 -216 -45 -6 -12 -11 -72
-11 -140 0 -99 3 -123 20 -150 28 -47 65 -67 121 -67 40 0 54 5 79 29 l30 29
0 -27 c0 -25 3 -27 40 -27 l40 0 0 300 0 300 -40 0 -40 0 0 -112z m-25 -153
c23 -22 25 -32 25 -118 0 -80 -3 -98 -21 -121 -28 -36 -89 -37 -124 -1 -23 22
-25 32 -25 120 0 88 2 98 25 120 16 17 35 25 60 25 25 0 44 -8 60 -25z"/>
    <path d="M5846 590 c-15 -5 -37 -17 -48 -27 -40 -36 -48 -67 -48 -190 0 -99 3
-123 20 -150 28 -47 65 -67 121 -67 40 0 54 5 79 29 l30 29 0 -43 c0 -75 -31
-110 -96 -111 -27 0 -50 7 -69 21 l-27 22 -26 -27 -27 -27 28 -25 c25 -22 37
-24 117 -24 82 0 91 2 121 27 55 47 59 68 59 328 l0 235 -40 0 c-36 0 -40 -2
-40 -26 l0 -26 -31 26 c-17 14 -36 26 -42 26 -7 0 -21 2 -32 5 -11 2 -33 0
-49 -5z m129 -95 c23 -22 25 -32 25 -118 0 -80 -3 -98 -21 -121 -28 -36 -89
-37 -124 -1 -23 22 -25 32 -25 120 0 88 2 98 25 120 16 17 35 25 60 25 25 0
44 -8 60 -25z"/>
    <path d="M6976 590 c-15 -5 -37 -17 -48 -27 -40 -36 -48 -67 -48 -190 0 -99 3
-123 20 -150 28 -47 65 -67 121 -67 40 0 54 5 79 29 l30 29 0 -43 c0 -75 -31
-110 -96 -111 -27 0 -50 7 -69 21 l-27 22 -26 -27 -27 -27 28 -25 c25 -22 37
-24 117 -24 82 0 91 2 121 27 55 47 59 68 59 328 l0 235 -40 0 c-36 0 -40 -2
-40 -26 l0 -26 -31 26 c-17 14 -36 26 -42 26 -7 0 -21 2 -32 5 -11 2 -33 0
-49 -5z m129 -95 c23 -22 25 -32 25 -118 0 -80 -3 -98 -21 -121 -28 -36 -89
-37 -124 -1 -23 22 -25 32 -25 120 0 88 2 98 25 120 16 17 35 25 60 25 25 0
44 -8 60 -25z"/>
    <path d="M4170 375 l0 -215 40 0 40 0 0 215 0 215 -40 0 -40 0 0 -215z"/>
    <path d="M4380 375 l0 -215 40 0 40 0 0 149 c0 82 3 157 6 166 10 26 62 48 99
41 63 -12 70 -30 73 -202 l3 -154 40 0 39 0 0 158 c0 179 -14 228 -69 256 -58
30 -154 13 -180 -31 -9 -15 -10 -12 -11 15 0 31 -2 32 -40 32 l-40 0 0 -215z"/>
    <path d="M4920 568 c-64 -44 -75 -69 -78 -182 -5 -127 13 -173 80 -207 56 -29
156 -24 211 10 l38 23 -26 28 -26 27 -37 -19 c-70 -36 -150 -5 -166 65 l-6 27
136 0 137 0 -5 69 c-9 121 -65 181 -168 181 -43 0 -65 -6 -90 -22z m148 -68
c12 -12 22 -22 22 -23 0 -1 4 -17 9 -35 l10 -32 -100 0 c-110 0 -110 0 -77 66
22 45 99 58 136 24z"/>
    <path d="M5355 574 c-54 -28 -60 -39 -29 -59 23 -15 33 -16 59 -6 81 29 155
-3 155 -68 l0 -29 -101 -4 c-99 -3 -101 -3 -130 -36 -24 -27 -29 -41 -29 -85
0 -59 16 -89 60 -112 37 -19 137 -19 173 -1 23 13 27 13 27 0 0 -10 12 -14 41
-14 l41 0 -4 168 c-3 186 -9 205 -71 242 -40 25 -148 27 -192 4z m185 -273 c0
-57 -12 -71 -69 -78 -79 -11 -129 25 -115 82 8 34 33 44 117 44 l67 1 0 -49z"/>
    <path d="M6280 568 c-64 -44 -75 -69 -78 -182 -5 -127 13 -173 80 -207 56 -29
156 -24 211 10 l38 23 -26 28 -26 27 -37 -19 c-70 -36 -150 -5 -166 65 l-6 27
136 0 137 0 -5 69 c-9 121 -65 181 -168 181 -43 0 -65 -6 -90 -22z m148 -68
c12 -12 22 -22 22 -23 0 -1 4 -17 9 -35 l10 -32 -100 0 c-110 0 -110 0 -77 66
22 45 99 58 136 24z"/>
    <path d="M7350 429 c0 -180 9 -217 64 -250 48 -29 126 -26 165 7 l31 26 0 -26
c0 -24 4 -26 40 -26 l40 0 0 215 0 215 -39 0 -40 0 -3 -154 c-3 -133 -6 -157
-22 -174 -39 -44 -122 -36 -145 14 -6 15 -11 83 -11 169 l0 145 -40 0 -40 0 0
-161z"/>
    <path d="M7820 375 l0 -215 40 0 40 0 0 215 0 215 -40 0 -40 0 0 -215z"/>
    <path d="M8560 568 c-64 -44 -75 -69 -78 -182 -5 -127 13 -173 80 -207 56 -29
156 -24 211 10 l38 23 -26 28 -26 27 -37 -19 c-70 -36 -150 -5 -166 65 l-6 27
136 0 137 0 -5 69 c-9 121 -65 181 -168 181 -43 0 -65 -6 -90 -22z m148 -68
c12 -12 22 -22 22 -23 0 -1 4 -17 9 -35 l10 -32 -100 0 c-110 0 -110 0 -77 66
22 45 99 58 136 24z"/>
  </g>
</svg>
